# xmcd CD database file generated by Grip 3.2.0
# 
# Track frame offsets:
#       150
#       29437
#       51906
#       87793
#       122330
#       157809
#       191596
#       222875
#       245988
#       281578
#       306740
# 
# Disc length: 4203 seconds
# 
# Revision: 1
# Processed by: cddbd v1.5.2PL0 Copyright (c) Steve Scherf et al.
# Submitted via: Grip 3.2.0
# 
DISCID=9c10690b
DTITLE=Future Beat Alliance - Hidden Emotion
DYEAR=2007
DGENRE=Techno
TTITLE0=Lost Souls
TTITLE1=Life Span
TTITLE2=Earth Message
TTITLE3=Hidden Emotion
TTITLE4=Mode 3
TTITLE5=Hippocampus
TTITLE6=Routine
TTITLE7=Isometric Dance
TTITLE8=Television X
TTITLE9=Valium Steps
TTITLE10=Aqualungs
EXTD=YEAR: 2007
EXTT0=
EXTT1=
EXTT2=
EXTT3=
EXTT4=
EXTT5=
EXTT6=
EXTT7=
EXTT8=
EXTT9=
EXTT10=
PLAYORDER=
